<svg xmlns:xlink="http://www.w3.org/1999/xlink" xmlns="http://www.w3.org/2000/svg" width="1480" height="1480" viewBox="0 0 1480 1480" fill="none">
<g clip-path="url(#clip0_6463_2569)">
<path d="M1479.05 0H0V1479.05H1479.05V0Z" fill="white"/>
<g clip-path="url(#clip1_6463_2569)">
<path d="M1142.35 485.176V672.941H1169.18C1183.99 672.941 1196 684.95 1196 699.765C1196 714.58 1183.99 726.589 1169.18 726.589H740C725.185 726.589 713.176 714.58 713.176 699.765C713.176 684.95 725.185 672.941 740 672.941H766.824V485.176H740C725.185 485.176 713.176 473.167 713.176 458.352V418.117C713.176 407.957 718.915 398.67 728.003 394.126L942.592 286.832C950.143 283.056 959.031 283.056 966.584 286.832L1181.17 394.126C1190.26 398.67 1196 407.957 1196 418.117V458.352C1196 473.167 1183.99 485.176 1169.18 485.176H1142.35ZM1088.71 485.176H1035.06V672.941H1088.71V485.176ZM981.411 485.176H927.763V672.941H981.411V485.176ZM874.117 485.176H820.47V672.941H874.117V485.176ZM713.176 954.589V1142.35H740C754.815 1142.35 766.824 1154.36 766.824 1169.18C766.824 1183.99 754.815 1196 740 1196H310.824C296.009 1196 284 1183.99 284 1169.18C284 1154.36 296.009 1142.35 310.824 1142.35H337.648V954.589H310.824C296.009 954.589 284 942.58 284 927.765V887.53C284 877.37 289.739 868.083 298.827 863.539L513.416 756.245C520.967 752.469 529.855 752.469 537.408 756.245L751.997 863.539C761.085 868.083 766.824 877.37 766.824 887.53V927.765C766.824 942.58 754.815 954.589 740 954.589H713.176ZM659.53 954.589H605.883V1142.35H659.53V954.589ZM552.235 954.589H498.587V1142.35H552.235V954.589ZM444.941 954.589H391.294V1142.35H444.941V954.589ZM1075.29 925.464V941.176C1075.29 1022.65 1009.24 1088.7 927.763 1088.7H874.116C859.301 1088.7 847.292 1076.7 847.292 1061.88C847.292 1047.07 859.301 1035.06 874.116 1035.06H927.763C979.612 1035.06 1021.65 993.025 1021.65 941.174V925.462L1000.38 946.73C989.904 957.206 972.92 957.206 962.444 946.73C951.969 936.255 951.969 919.27 962.444 908.797L1029.5 841.738C1039.98 831.262 1056.96 831.262 1067.44 841.738L1134.5 908.797C1144.97 919.272 1144.97 936.256 1134.5 946.73C1124.02 957.206 1107.04 957.206 1096.56 946.73L1075.29 925.464ZM404.706 554.536V538.824C404.706 457.346 470.757 391.294 552.237 391.294H605.884C620.699 391.294 632.708 403.303 632.708 418.117C632.708 432.932 620.699 444.941 605.884 444.941H552.237C500.388 444.941 458.354 486.973 458.354 538.824V554.536L479.622 533.268C490.096 522.793 507.08 522.793 517.556 533.268C528.031 543.744 528.031 560.728 517.556 571.202L450.497 638.26C440.023 648.736 423.039 648.736 412.564 638.26L345.505 571.202C335.029 560.726 335.029 543.742 345.505 533.268C355.979 522.793 372.963 522.793 383.438 533.268L404.706 554.536Z" fill="black"/>
</g>
</g>
<defs>
<clipPath id="clip0_6463_2569">
<rect width="1480" height="1480" fill="white"/>
</clipPath>
<clipPath id="clip1_6463_2569">
<rect width="912" height="912" fill="white" transform="translate(284 284)"/>
</clipPath>
</defs>
</svg>