<svg xmlns:xlink="http://www.w3.org/1999/xlink" xmlns="http://www.w3.org/2000/svg" width="1481" height="1481" viewBox="0 0 1481 1481" fill="none">
<rect width="1480.05" height="1480.05" fill="white"/>
<g clip-path="url(#clip0_2853_182)">
<path d="M1074.33 500.456C1076 486.892 1076.87 473.082 1076.87 459.068C1076.87 341.275 981.376 245.782 863.581 245.782H507.133C484.712 245.782 465.569 261.973 461.849 284.083L330.507 1064.73C325.794 1092.74 347.388 1118.27 375.792 1118.27H506.153C528.575 1118.27 548.078 1102.09 551.796 1079.98C551.796 1079.98 552.013 1078.68 552.406 1076.35H552.408L534.241 1184.33C530.09 1209.02 549.121 1231.52 574.156 1231.52H688.203C707.965 1231.52 724.838 1217.25 728.115 1197.76L760.516 1005.19C766.101 971.998 794.839 947.691 828.499 947.691H858.46C1021.2 947.691 1153.13 815.763 1153.13 653.022C1153.13 590.048 1122 534.383 1074.33 500.456Z" fill="#002987"/>
<path d="M1074.29 500.452C1053.9 666.369 912.488 794.844 741.058 794.844H641.589C619.139 794.844 599.749 809.798 593.668 830.941L534.212 1184.32C530.059 1209.01 549.09 1231.51 574.124 1231.51H688.171C707.934 1231.51 724.807 1217.24 728.084 1197.75L760.484 1005.19C766.069 971.994 794.808 947.687 828.467 947.687H858.428C1021.17 947.687 1153.1 815.758 1153.1 653.017C1153.1 590.044 1121.97 534.379 1074.29 500.452Z" fill="#0085CC"/>
<path d="M641.635 794.81H741.104C912.535 794.81 1053.95 666.335 1074.34 500.42C1043.75 478.653 1006.37 465.807 965.967 465.807H706.345C676.786 465.807 651.548 487.153 646.642 516.301L593.711 830.905C599.793 809.762 619.184 794.81 641.635 794.81Z" fill="#00186A"/>
</g>
<defs>
<clipPath id="clip0_2853_182">
<rect width="985.736" height="985.736" fill="white" transform="translate(248.609 245.78)"/>
</clipPath>
</defs>
</svg>