<svg xmlns:xlink="http://www.w3.org/1999/xlink" data-v-24704257="" width="66" height="66" viewBox="0 0 66 66" fill="none" xmlns="http://www.w3.org/2000/svg"><path data-v-24704257="" d="M46.8 7.59961H19.2C12.7 7.59961 7.5 12.7996 7.5 19.2996V46.7996C7.5 53.2996 12.7 58.4996 19.2 58.4996H46.7C53.2 58.4996 58.4 53.2996 58.4 46.7996V19.1996C58.4 12.7996 53.2 7.59961 46.8 7.59961ZM49.5 34.6996H38.1C37.4 34.6996 36.8 34.2996 36.5 33.5996L34.6 27.9996L30.8 44.3996C30.6 45.0996 30 45.5996 29.3 45.6996H29.2C28.5 45.6996 27.9 45.2996 27.6 44.5996L24.2 34.6996H16.5C15.6 34.6996 14.8 33.9996 14.8 32.9996C14.8 31.9996 15.5 31.2996 16.5 31.2996H25.4C26.1 31.2996 26.7 31.6996 27 32.3996L28.9 37.8996L32.7 21.4996C32.9 20.7996 33.5 20.2996 34.2 20.1996C34.9 20.1996 35.6 20.5996 35.9 21.2996L39.3 31.1996H49.5C50.4 31.1996 51.2 31.8996 51.2 32.8996C51.2 33.8996 50.4 34.6996 49.5 34.6996Z" fill="#FFFFFF"></path></svg>