<svg xmlns:xlink="http://www.w3.org/1999/xlink" data-v-7dc1c374="" width="66" height="66" viewBox="0 0 66 66" fill="none" xmlns="http://www.w3.org/2000/svg"><path data-v-7dc1c374="" d="M5.5 19.25C5.5 11.6561 11.6561 5.5 19.25 5.5H46.75C54.3439 5.5 60.5 11.6561 60.5 19.25V46.75C60.5 54.3439 54.3439 60.5 46.75 60.5H19.25C11.6561 60.5 5.5 54.3439 5.5 46.75V19.25ZM43.1945 26.6945C44.2685 25.6206 44.2685 23.8794 43.1945 22.8055C42.1206 21.7315 40.3794 21.7315 39.3055 22.8055L22.8055 39.3055C21.7315 40.3794 21.7315 42.1206 22.8055 43.1945C23.8794 44.2685 25.6206 44.2685 26.6945 43.1945L43.1945 26.6945ZM44 39.875C44 42.1532 42.1532 44 39.875 44C37.5968 44 35.75 42.1532 35.75 39.875C35.75 37.5968 37.5968 35.75 39.875 35.75C42.1532 35.75 44 37.5968 44 39.875ZM26.125 30.25C28.4032 30.25 30.25 28.4032 30.25 26.125C30.25 23.8468 28.4032 22 26.125 22C23.8468 22 22 23.8468 22 26.125C22 28.4032 23.8468 30.25 26.125 30.25Z" fill="black" fill-rule="evenodd" clip-rule="evenodd"></path></svg>