<svg xmlns:xlink="http://www.w3.org/1999/xlink" data-v-0c71d4b9="" width="66" height="66" viewBox="0 0 66 66" fill="none" xmlns="http://www.w3.org/2000/svg"><path data-v-0c71d4b9="" d="M46.751 7.5625H19.251C12.7961 7.5625 7.56348 12.7952 7.56348 19.25V46.75C7.56348 53.2048 12.7961 58.4375 19.251 58.4375H46.751C53.2058 58.4375 58.4385 53.2048 58.4385 46.75V19.25C58.4385 12.7952 53.2058 7.5625 46.751 7.5625Z" stroke="#B4B4B4" stroke-width="3.31731px" fill="none"></path><path data-v-0c71d4b9="" fill-rule="evenodd" clip-rule="evenodd" d="M45.9557 24.6406C45.9557 23.5015 45.0323 22.5781 43.8932 22.5781H36.1149C34.9758 22.5781 34.0524 23.5015 34.0524 24.6406C34.0524 25.7797 34.9758 26.7031 36.1149 26.7031H38.9138L32.2706 33.3464L28.3368 29.4126C27.5313 28.6071 26.2254 28.6071 25.42 29.4126L16.6695 38.1631C15.8641 38.9685 15.8641 40.2745 16.6695 41.08C17.475 41.8855 18.7809 41.8855 19.5864 41.08L26.8784 33.7878L30.812 37.7217C31.6175 38.5272 32.9235 38.5272 33.729 37.7217L41.8307 29.6199V32.4189C41.8307 33.5579 42.7542 34.4814 43.8932 34.4814C45.0323 34.4814 45.9557 33.5579 45.9557 32.4189V24.6406Z" fill="#B4B4B4"></path></svg>