<svg xmlns:xlink="http://www.w3.org/1999/xlink" data-v-55b78cce="" width="53" height="53" viewBox="0 0 53 53" fill="none" xmlns="http://www.w3.org/2000/svg"><path data-v-55b78cce="" d="M5 42.0004C5 42.9004 5.7 43.7004 6.7 43.7004C7.7 43.7004 8.4 43.0004 8.4 42.0004H5ZM31.5 42.0004C31.5 42.9004 32.2 43.7004 33.2 43.7004C34.2 43.7004 34.8 43.0004 34.8 42.0004H31.5ZM33.1 22.6004C32.2 22.6004 31.4 23.3004 31.4 24.3004C31.4 25.2004 32.1 26.0004 33.1 26.0004V22.6004ZM33.1 9.40039C32.2 9.40039 31.4 10.1004 31.4 11.1004C31.4 12.0004 32.1 12.8004 33.1 12.8004V9.40039ZM44.7 42.0004C44.7 42.9004 45.4 43.7004 46.4 43.7004C47.4 43.7004 48 42.9004 48 42.0004H44.7ZM36.4 29.3004C35.5 29.3004 34.7 30.0004 34.7 31.0004C34.7 31.9004 35.4 32.7004 36.4 32.7004V29.3004ZM8.3 42.0004V39.8004H5V42.0004H8.3ZM15.5 32.6004H24.3V29.3004H15.5V32.6004ZM31.5 39.8004V42.0004H34.8V39.8004H31.5ZM24.8 17.7004C24.8 20.4004 22.6 22.7004 19.8 22.7004V26.0004C24.4 26.0004 28.2 22.3004 28.2 17.7004H24.8ZM19.9 22.6004C17.2 22.6004 14.9 20.4004 14.9 17.6004H11.6C11.6 22.2004 15.3 26.0004 19.9 26.0004V22.6004ZM14.9 17.7004C14.9 15.0004 17.1 12.7004 19.9 12.7004V9.40039C15.3 9.40039 11.6 13.1004 11.6 17.7004H14.9ZM19.9 12.7004C22.6 12.7004 24.9 14.9004 24.9 17.7004H28.2C28.2 13.1004 24.5 9.40039 19.9 9.40039V12.7004ZM38.1 17.7004C38.1 20.4004 35.9 22.7004 33.1 22.7004V26.0004C37.7 26.0004 41.4 22.3004 41.4 17.7004H38.1ZM33.1 12.7004C35.8 12.7004 38.1 14.9004 38.1 17.7004H41.4C41.4 13.1004 37.7 9.40039 33.1 9.40039V12.7004ZM44.7 39.8004V42.0004H48V39.8004H44.7ZM36.4 32.6004H37.5V29.3004H36.4V32.6004ZM48 39.8004C48 34.0004 43.3 29.3004 37.5 29.3004V32.6004C41.5 32.6004 44.7 35.8004 44.7 39.8004H48ZM24.3 32.6004C28.3 32.6004 31.5 35.8004 31.5 39.8004H34.8C34.8 34.0004 30.1 29.3004 24.3 29.3004V32.6004ZM8.3 39.8004C8.3 35.8004 11.5 32.6004 15.5 32.6004V29.3004C9.7 29.3004 5 34.0004 5 39.8004H8.3Z" fill="#FFFFFF"></path><path data-v-55b78cce="" d="M19.8002 23.6004C23.1691 23.6004 25.9002 20.8693 25.9002 17.5004C25.9002 14.1315 23.1691 11.4004 19.8002 11.4004C16.4313 11.4004 13.7002 14.1315 13.7002 17.5004C13.7002 20.8693 16.4313 23.6004 19.8002 23.6004Z" fill="#FFFFFF"></path><path data-v-55b78cce="" d="M38.7 17.6996C38.7 21.0996 35.7 23.7996 31.9 23.7996C31.7 23.7996 31.6 23.7996 31.5 23.7996C31.5 23.7996 31.6 21.2996 31.5 17.6996C31.4 13.7996 31.5 11.5996 31.5 11.5996C31.6 11.5996 31.8 11.5996 31.9 11.5996C35.6 11.5996 38.7 14.2996 38.7 17.6996Z" fill="#FFFFFF"></path><path data-v-55b78cce="" d="M33.2001 43.7004H6.6001V40.0004C6.6001 35.0004 10.7001 30.9004 15.7001 30.9004H24.0001C29.0001 30.9004 33.1001 35.0004 33.1001 40.0004V43.7004H33.2001Z" fill="#FFFFFF"></path><path data-v-55b78cce="" d="M46.3002 40.0004V43.7004L36.6002 43.4004C38.6002 36.9004 34.7002 31.6004 34.7002 31.6004V30.9004H37.3002C42.3002 31.0004 46.3002 35.0004 46.3002 40.0004Z" fill="#FFFFFF"></path></svg>