<svg xmlns:xlink="http://www.w3.org/1999/xlink" data-v-55b78cce="" width="66" height="66" viewBox="0 0 66 66" fill="none" xmlns="http://www.w3.org/2000/svg"><path data-v-55b78cce="" d="M8.25 52.25V49.5C8.25 43.4249 13.1749 38.5 19.25 38.5H30.25C36.3251 38.5 41.25 43.4249 41.25 49.5V52.25M41.25 30.25C45.8063 30.25 49.5 26.5563 49.5 22C49.5 17.4437 45.8063 13.75 41.25 13.75M57.75 52.25V49.5C57.75 43.4249 52.8251 38.5 46.75 38.5H45.375M33 22C33 26.5563 29.3063 30.25 24.75 30.25C20.1937 30.25 16.5 26.5563 16.5 22C16.5 17.4437 20.1937 13.75 24.75 13.75C29.3063 13.75 33 17.4437 33 22Z" stroke="#B4B4B4" stroke-width="3.31px" stroke-linecap="round" stroke-linejoin="round" fill="none"></path></svg>