<svg xmlns:xlink="http://www.w3.org/1999/xlink" data-v-07259b2a="" width="53" height="53" viewBox="0 0 53 53" fill="none" xmlns="http://www.w3.org/2000/svg"><path data-v-07259b2a="" d="M17.7 6.09961H11C8.3 6.09961 6 8.29961 6 11.0996V41.9996C6 44.6996 8.2 46.9996 11 46.9996H17.6C20.3 46.9996 22.6 44.7996 22.6 41.9996V10.9996C22.6 8.29961 20.4 6.09961 17.7 6.09961Z" stroke="#FFFFFF" stroke-width="3.3461px" fill="#FFFFFF"></path><path data-v-07259b2a="" d="M41.9999 6.09961H35.3999C32.6999 6.09961 30.3999 8.29961 30.3999 11.0996V17.6996C30.3999 20.3996 32.5999 22.6996 35.3999 22.6996H41.9999C44.6999 22.6996 46.9999 20.4996 46.9999 17.6996V10.9996C46.8999 8.29961 44.6999 6.09961 41.9999 6.09961Z" stroke="#FFFFFF" stroke-width="3.3461px" fill="#FFFFFF"></path><path data-v-07259b2a="" d="M41.9999 30.3994H35.3999C32.6999 30.3994 30.3999 32.5994 30.3999 35.3994V41.9994C30.3999 44.6994 32.5999 46.9994 35.3999 46.9994H41.9999C44.6999 46.9994 46.9999 44.7994 46.9999 41.9994V35.3994C46.8999 32.5994 44.6999 30.3994 41.9999 30.3994Z" stroke="#FFFFFF" stroke-width="3.3461px" fill="#FFFFFF"></path></svg>