<svg xmlns:xlink="http://www.w3.org/1999/xlink" data-v-07259b2a="" width="66" height="66" viewBox="0 0 66 66" fill="none" xmlns="http://www.w3.org/2000/svg"><path data-v-07259b2a="" d="M22 7.5625H13.75C10.3327 7.5625 7.5625 10.3327 7.5625 13.75V52.25C7.5625 55.6673 10.3327 58.4375 13.75 58.4375H22C25.4173 58.4375 28.1875 55.6673 28.1875 52.25V13.75C28.1875 10.3327 25.4173 7.5625 22 7.5625Z" stroke="#B4B4B4" stroke-width="3.34612px" fill="none"></path><path data-v-07259b2a="" d="M52.249 7.5625H43.999C40.5818 7.5625 37.8115 10.3327 37.8115 13.75V22C37.8115 25.4173 40.5818 28.1875 43.999 28.1875H52.249C55.6663 28.1875 58.4365 25.4173 58.4365 22V13.75C58.4365 10.3327 55.6663 7.5625 52.249 7.5625Z" stroke="#B4B4B4" stroke-width="3.34612px" fill="none"></path><path data-v-07259b2a="" d="M52.249 37.8125H43.999C40.5818 37.8125 37.8115 40.5827 37.8115 44V52.25C37.8115 55.6673 40.5818 58.4375 43.999 58.4375H52.249C55.6663 58.4375 58.4365 55.6673 58.4365 52.25V44C58.4365 40.5827 55.6663 37.8125 52.249 37.8125Z" stroke="#B4B4B4" stroke-width="3.34612px" fill="none"></path></svg>