<svg xmlns:xlink="http://www.w3.org/1999/xlink" data-v-5295136c="" width="66" height="66" viewBox="0 0 66 66" fill="none" xmlns="http://www.w3.org/2000/svg"><path data-v-5295136c="" d="M41.25 57.75H13.7779C10.7249 57.75 8.25 55.2751 8.25 52.2221V22.0139C8.25 20.4875 9.48746 19.25 11.0139 19.25H38.4861C40.0125 19.25 41.25 20.4875 41.25 22.0139V28.875" stroke="#B4B4B4" stroke-width="4.14279px" stroke-linecap="round" stroke-linejoin="round" fill="none"></path><path data-v-5295136c="" d="M24.75 33.0139C24.75 31.4875 25.9875 30.25 27.5139 30.25H54.9861C56.5125 30.25 57.75 31.4875 57.75 33.0139V52.2221C57.75 55.2751 55.2751 57.75 52.2221 57.75H30.2779C27.2249 57.75 24.75 55.2751 24.75 52.2221V33.0139Z" stroke="#B4B4B4" stroke-width="4.14279px" stroke-linecap="round" stroke-linejoin="round" fill="none"></path><path data-v-5295136c="" d="M33 19.2461V16.4961C33 11.9397 29.3063 8.24609 24.75 8.24609V8.24609C20.1937 8.24609 16.5 11.9397 16.5 16.4961V19.2461" stroke="#B4B4B4" stroke-width="4.14279px" stroke-linecap="round" stroke-linejoin="round" fill="none"></path><path data-v-5295136c="" d="M35.75 38.5L35.75 41.25C35.75 44.2876 38.2124 46.75 41.25 46.75V46.75C44.2876 46.75 46.75 44.2876 46.75 41.25L46.75 38.5" stroke="#B4B4B4" stroke-width="4.14279px" stroke-linecap="round" stroke-linejoin="round" fill="none"></path></svg>