<svg xmlns:xlink="http://www.w3.org/1999/xlink" data-v-5295136c="" width="54" height="53" viewBox="0 0 54 53" fill="none" xmlns="http://www.w3.org/2000/svg"><path data-v-5295136c="" d="M36.3 17.5998V23.1998H20.3C19.1 23.1998 18.1 24.1998 18.1 25.3998V42.5998C18.2 47.6998 21 46.9998 24.9 46.9998H36.3C35.2 47.9998 34 47.9998 32.4 47.9998H12.7C9.3 47.9998 6.5 45.1998 6.5 41.7998V17.5998C6.5 15.4998 8.2 13.7998 10.3 13.7998H32.5C34.6 13.7998 36.3 15.4998 36.3 17.5998Z" fill="#FFFFFF"></path><path data-v-5295136c="" d="M43.6999 24.2998H21.5999C20.3999 24.2998 19.3999 25.2998 19.3999 26.4998V43.0998C19.3999 44.8998 20.8999 46.3998 22.6999 46.3998H41.4999C43.8999 46.3998 45.8999 44.3998 45.8999 41.9998V26.4998C45.7999 25.2998 44.8999 24.2998 43.6999 24.2998ZM38.6999 33.0998C38.6999 36.3998 35.9999 39.1998 32.5999 39.1998C29.2999 39.1998 26.4999 36.4998 26.4999 33.0998V30.9998C26.4999 30.1998 27.0999 29.3998 27.8999 29.2998C28.8999 29.0998 29.7999 29.8998 29.7999 30.8998V32.9998C29.7999 34.4998 30.8999 35.7998 32.3999 35.8998C33.9999 35.9998 35.2999 34.6998 35.2999 33.0998V30.9998C35.2999 30.1998 35.8999 29.3998 36.6999 29.2998C37.6999 29.0998 38.5999 29.8998 38.5999 30.8998L38.6999 33.0998Z" fill="#FFFFFF"></path><path data-v-5295136c="" d="M26.9998 15.5002V13.3002C26.9998 9.6002 23.9998 6.7002 20.3998 6.7002C16.6998 6.7002 13.7998 9.7002 13.7998 13.3002V15.5002" stroke="#FFFFFF" stroke-width="3.31px" stroke-linecap="round" stroke-linejoin="round" fill="none"></path></svg>