<svg xmlns:xlink="http://www.w3.org/1999/xlink" data-v-608a09b6="" width="53" height="53" viewBox="0 0 53 53" fill="none" xmlns="http://www.w3.org/2000/svg"><path data-v-608a09b6="" d="M26.5001 24.5998L9.1001 14.4998C9.3001 14.3998 9.4001 14.2998 9.6001 14.1998L16.3001 10.2998C16.4001 10.3998 16.4001 10.3998 16.5001 10.3998L33.4001 20.5998L26.5001 24.5998Z" fill="#FFFFFF"></path><path data-v-608a09b6="" d="M43.9 14.5L36.5 18.7C36.4 18.6 36.3 18.5 36.1 18.4L19.6 8.5C19.6 8.5 19.5 8.5 19.5 8.4L24.3 5.6C25.7 4.8 27.3 4.8 28.7 5.6L43.4 14.1C43.6 14.3 43.8 14.4 43.9 14.5Z" fill="#FFFFFF"></path><path data-v-608a09b6="" d="M25.6999 47.8004C25.1999 47.7004 24.6999 47.6004 24.2999 47.3004L9.5999 38.8004C8.1999 38.0004 7.3999 36.6004 7.3999 35.0004V18.0004C7.3999 17.8004 7.3999 17.6004 7.3999 17.4004L24.7999 27.5004V46.4004C24.7999 47.0004 25.1999 47.5004 25.6999 47.8004Z" fill="#FFFFFF"></path><path data-v-608a09b6="" d="M45.5998 18.0004V35.0004C45.5998 36.6004 44.7998 38.0004 43.3998 38.8004L28.6998 47.3004C28.2998 47.5004 27.7998 47.7004 27.2998 47.8004C27.7998 47.5004 28.0998 47.0004 28.0998 46.4004V27.5004L45.4998 17.4004C45.5998 17.6004 45.5998 17.8004 45.5998 18.0004Z" fill="#FFFFFF"></path></svg>