<svg xmlns:xlink="http://www.w3.org/1999/xlink" data-v-608a09b6="" width="66" height="66" viewBox="0 0 66 66" fill="none" xmlns="http://www.w3.org/2000/svg"><path data-v-608a09b6="" d="M56.0658 19.6853L33.0004 33.0023L9.92578 19.6641" stroke="#B4B4B4" stroke-width="3.31px" stroke-linecap="round" stroke-linejoin="round" fill="none"></path><path data-v-608a09b6="" d="M33 33V57.75" stroke="#B4B4B4" stroke-width="3.31px" stroke-linecap="round" stroke-linejoin="round" fill="none"></path><path data-v-608a09b6="" d="M30.792 6.77531C32.1585 5.98635 33.8421 5.98635 35.2086 6.77531L54.6077 17.9753C55.9742 18.7643 56.816 20.2223 56.816 21.8003V44.2003C56.816 45.7783 55.9742 47.2363 54.6077 48.0253L35.2086 59.2253C33.8421 60.0143 32.1585 60.0143 30.792 59.2253L11.3929 48.0253C10.0264 47.2363 9.18457 45.7783 9.18457 44.2003V21.8003C9.18457 20.2223 10.0264 18.7643 11.3929 17.9753L30.792 6.77531Z" stroke="#B4B4B4" stroke-width="3.31px" stroke-linecap="round" stroke-linejoin="round" fill="none"></path><path data-v-608a09b6="" d="M23.375 12.375L44 24.75" stroke="#B4B4B4" stroke-width="3.31px" stroke-linecap="round" stroke-linejoin="round" fill="none"></path></svg>