<svg xmlns:xlink="http://www.w3.org/1999/xlink" data-v-0c71d4b9="" width="53" height="53" viewBox="0 0 53 53" fill="none" xmlns="http://www.w3.org/2000/svg"><path data-v-0c71d4b9="" d="M37.5001 6.09961H15.5001C10.3001 6.09961 6.1001 10.2996 6.1001 15.4996V37.5996C6.1001 42.7996 10.3001 46.9996 15.5001 46.9996H37.6001C42.8001 46.9996 47.0001 42.7996 47.0001 37.5996V15.4996C46.9001 10.2996 42.7001 6.09961 37.5001 6.09961ZM36.9001 25.9996C36.9001 26.8996 36.1001 27.6996 35.2001 27.6996C34.3001 27.6996 33.5001 26.9996 33.5001 25.9996V23.7996L27.0001 30.2996C26.3001 30.9996 25.3001 30.9996 24.7001 30.2996L21.5001 27.0996L15.7001 32.9996C15.0001 33.6996 14.0001 33.6996 13.4001 32.9996C12.7001 32.3996 12.7001 31.2996 13.4001 30.6996L20.4001 23.6996C21.0001 22.9996 22.1001 22.9996 22.7001 23.6996L25.9001 26.8996L31.2001 21.5996H29.0001C28.1001 21.5996 27.4001 20.7996 27.4001 19.8996C27.4001 18.9996 28.1001 18.1996 29.0001 18.1996H35.2001C36.1001 18.1996 36.9001 18.8996 36.9001 19.8996V25.9996Z" fill="#FFFFFF"></path></svg>