<svg xmlns:xlink="http://www.w3.org/1999/xlink" xmlns="http://www.w3.org/2000/svg" width="24" height="25" viewBox="0 0 24 25" fill="none">
<path d="M16.7531 3.4209H6.95687C4.65748 3.4209 2.79346 5.28492 2.79346 7.58431V17.3806C2.79346 19.68 4.65748 21.544 6.95687 21.544H16.7531C19.0525 21.544 20.9166 19.68 20.9166 17.3806V7.58431C20.9166 5.28492 19.0525 3.4209 16.7531 3.4209Z" stroke="black" stroke-width="1.18172"/>
<path fill-rule="evenodd" clip-rule="evenodd" d="M16.47 9.50474C16.47 9.09897 16.1411 8.77002 15.7353 8.77002H12.9644C12.5587 8.77002 12.2297 9.09897 12.2297 9.50474C12.2297 9.91052 12.5587 10.2395 12.9644 10.2395H13.9615L11.595 12.606L10.1937 11.2046C9.90673 10.9177 9.44154 10.9177 9.15462 11.2046L6.03747 14.3218C5.75053 14.6087 5.75053 15.074 6.03747 15.3609C6.32439 15.6478 6.78958 15.6478 7.07652 15.3609L9.67414 12.7632L11.0754 14.1646C11.3624 14.4515 11.8276 14.4515 12.1145 14.1646L15.0006 11.2785V12.2756C15.0006 12.6813 15.3295 13.0103 15.7353 13.0103C16.1411 13.0103 16.47 12.6813 16.47 12.2756V9.50474Z" fill="black"/>
</svg>