<svg xmlns:xlink="http://www.w3.org/1999/xlink" data-v-37d8fad9="" width="53" height="53" viewBox="0 0 53 53" fill="none" xmlns="http://www.w3.org/2000/svg"><path data-v-37d8fad9="" d="M40.4002 18.4H31.1002C29.7002 18.4 29.2002 17.3 29.2002 16.2V7L40.4002 18.4Z" fill="#FFFFFF"></path><path data-v-37d8fad9="" d="M41.9 20.6996H38.4H30.3C28.2 20.6996 26.4 18.9996 26.4 16.7996V6.59961H17.6C13.9 6.59961 11 9.59961 11 13.1996V39.6996C11 43.3996 14 46.2996 17.6 46.2996H35.3C39 46.2996 41.9 43.2996 41.9 39.6996V20.6996ZM33.1 39.1996H19.9C19 39.1996 18.2 38.4996 18.2 37.4996C18.2 36.5996 18.9 35.8996 19.9 35.8996H33.1C34 35.8996 34.8 36.5996 34.8 37.4996C34.8 38.4996 34 39.1996 33.1 39.1996ZM33.1 30.3996H19.9C19 30.3996 18.2 29.6996 18.2 28.7996C18.2 27.8996 18.9 27.0996 19.9 27.0996H33.1C34 27.0996 34.8 27.7996 34.8 28.7996C34.8 29.5996 34 30.3996 33.1 30.3996Z" fill="#FFFFFF"></path></svg>