<svg xmlns:xlink="http://www.w3.org/1999/xlink" data-v-1c240c12="" width="53" height="53" viewBox="0 0 53 53" fill="none" xmlns="http://www.w3.org/2000/svg"><path data-v-1c240c12="" d="M24.5002 8.10039C25.3002 6.50039 27.6002 6.50039 28.4002 8.10039L32.7002 16.2004C33.0002 16.8004 33.6002 17.2004 34.3002 17.3004L43.4002 18.9004C45.1002 19.2004 45.8002 21.3004 44.6002 22.6004L38.2002 29.2004C37.7002 29.7004 37.5002 30.4004 37.6002 31.0004L38.9002 40.1004C39.1002 41.9004 37.3002 43.2004 35.7002 42.4004L27.4002 38.4004C26.8002 38.1004 26.1002 38.1004 25.5002 38.4004L17.2002 42.4004C15.6002 43.2004 13.8002 41.9004 14.0002 40.1004L15.3002 31.0004C15.4002 30.3004 15.2002 29.6004 14.7002 29.2004L8.30023 22.6004C7.10023 21.3004 7.80023 19.2004 9.50023 18.9004L18.6002 17.3004C19.3002 17.2004 19.8002 16.8004 20.2002 16.2004L24.5002 8.10039Z" fill="#FFFFFF"></path></svg>