<svg xmlns:xlink="http://www.w3.org/1999/xlink" data-v-1c240c12="" width="66" height="66" viewBox="0 0 66 66" fill="none" xmlns="http://www.w3.org/2000/svg"><path data-v-1c240c12="" d="M30.5711 10.0773C31.6051 8.13049 34.3947 8.13049 35.4287 10.0773L40.8077 20.2051C41.205 20.9535 41.9255 21.4768 42.7602 21.6236L54.0544 23.6098C56.2255 23.9915 57.0874 26.6445 55.5554 28.2294L47.5856 36.475C46.9965 37.0841 46.7215 37.9311 46.8398 38.7701L48.4411 50.1254C48.7488 52.3081 46.4919 53.9476 44.5114 52.9805L34.2066 47.9488C33.4451 47.5767 32.5546 47.5767 31.7932 47.9488L21.4885 52.9805C19.5077 53.9476 17.2509 52.3081 17.5587 50.1254L19.1599 38.7701C19.2783 37.9311 19.0031 37.0841 18.4142 36.475L10.4443 28.2294C8.91232 26.6445 9.77433 23.9915 11.9453 23.6098L23.2397 21.6236C24.0743 21.4768 24.7946 20.9535 25.1921 20.2051L30.5711 10.0773Z" stroke="#B4B4B4" stroke-width="3.31731px" fill="none"></path></svg>