<svg xmlns:xlink="http://www.w3.org/1999/xlink" data-v-03205172="" width="66" height="66" viewBox="0 0 66 66" fill="none" xmlns="http://www.w3.org/2000/svg"><path data-v-03205172="" d="M7.97665 21.3345L10.3966 17.1429C11.8266 14.6661 15.0335 13.7867 17.5341 15.2305C21.8448 17.7192 25.3671 15.6883 25.3587 10.698C25.3577 7.83958 27.7049 5.4794 30.5869 5.49224L36.0685 5.51322C38.596 5.48014 40.6404 7.54949 40.6734 10.0772L40.6742 10.6809C40.6588 15.6575 44.1835 17.6925 48.5095 15.2047L49.0325 14.9034C51.2383 13.6682 54.0524 14.4039 55.2877 16.6095L58.0465 21.346C59.4988 23.8356 58.6284 27.0483 56.1523 28.4767C51.8263 30.9647 51.8287 35.0305 56.1394 37.5193C58.6163 38.9493 59.4957 42.1561 58.052 44.6566L55.632 48.8482C54.202 51.3251 50.9949 52.2046 48.4944 50.7608C44.1837 48.2721 40.6613 50.3029 40.6698 55.2931C40.6571 58.1754 38.3238 60.5118 35.4415 60.4991L29.9602 60.4779C27.4325 60.5112 25.3882 58.4418 25.3552 55.914L25.3544 55.3104C25.3698 50.3337 21.845 48.2987 17.5191 50.7867L16.9959 51.0878C14.7903 52.3231 11.9761 51.5875 10.7409 49.3817L7.98201 44.6454C6.52976 42.1555 7.40025 38.943 9.87616 37.5143C14.2021 35.0267 14.1998 30.9608 9.88914 28.4721C7.38848 27.0283 6.54665 23.8113 7.97665 21.3345Z" stroke="#B4B4B4" stroke-width="3.3125px" stroke-miterlimit="10" stroke-linecap="round" stroke-linejoin="round" fill="none"></path><path data-v-03205172="" d="M41.9375 33C41.9375 28.064 37.936 24.0625 33 24.0625C28.064 24.0625 24.0625 28.064 24.0625 33C24.0625 37.936 28.064 41.9375 33 41.9375C37.936 41.9375 41.9375 37.936 41.9375 33Z" stroke="#B4B4B4" stroke-width="3.3125px" fill="none"></path></svg>