<svg xmlns:xlink="http://www.w3.org/1999/xlink" data-v-03205172="" width="53" height="53" viewBox="0 0 53 53" fill="none" xmlns="http://www.w3.org/2000/svg"><path data-v-03205172="" d="M26.5 32C29.5376 32 32 29.5376 32 26.5C32 23.4624 29.5376 21 26.5 21C23.4624 21 21 23.4624 21 26.5C21 29.5376 23.4624 32 26.5 32Z" fill="#FFFFFF"></path><path data-v-03205172="" d="M45.1 30.1004C41.6 28.1004 41.6 24.8004 45.1 22.8004C47.1 21.6004 47.8 19.1004 46.6 17.1004L44.4 13.3004C43.4 11.5004 41.2 10.9004 39.4 11.9004L39 12.2004C35.5 14.2004 32.7 12.6004 32.7 8.60039V8.10039C32.7 6.10039 31 4.40039 29 4.40039H24.6C22.3 4.40039 20.4 6.30039 20.4 8.60039C20.4 12.6004 17.6 14.2004 14.1 12.2004C12.1 11.0004 9.50002 11.8004 8.40002 13.7004L6.50002 17.1004C5.30002 19.1004 6.00002 21.7004 8.00002 22.8004C11.5 24.8004 11.5 28.1004 8.00002 30.1004C6.00002 31.3004 5.30002 33.8004 6.50002 35.8004L8.70002 39.6004C9.70002 41.4004 11.9 42.0004 13.7 41.0004L14.1 40.8004C17.6 38.8004 20.4 40.4004 20.4 44.4004V44.9004C20.4 46.9004 22.1 48.6004 24.1 48.6004H28.5C30.8 48.6004 32.7 46.7004 32.7 44.4004C32.7 40.4004 35.5 38.8004 39 40.8004C41 42.0004 43.6 41.2004 44.7 39.3004L46.6 35.9004C47.8 33.9004 47.1 31.3004 45.1 30.1004ZM26.5 35.3004C21.6 35.3004 17.7 31.3004 17.7 26.5004C17.7 21.7004 21.7 17.7004 26.5 17.7004C31.3 17.7004 35.3 21.7004 35.3 26.5004C35.3 31.3004 31.4 35.3004 26.5 35.3004Z" fill="#FFFFFF"></path></svg>