<svg xmlns:xlink="http://www.w3.org/1999/xlink" data-v-e3e2c0a4="" width="53" height="53" viewBox="0 0 53 53" fill="none" xmlns="http://www.w3.org/2000/svg"><path data-v-e3e2c0a4="" d="M32.0218 28.1576C30.9711 28.1684 29.9311 27.9463 28.9765 27.5072C28.0219 27.0681 27.1764 26.4229 26.501 25.618C25.8206 26.417 24.9742 27.0582 24.0207 27.4968C23.0673 27.9354 22.0297 28.1609 20.9802 28.1576C19.9295 28.1684 18.8894 27.9463 17.9348 27.5072C16.9802 27.0681 16.1348 26.4229 15.4593 25.618C15.2557 25.8622 15.0343 26.0911 14.7968 26.3026C14.0534 26.979 13.175 27.4901 12.2195 27.8023C11.2641 28.1144 10.2533 28.2204 9.25391 28.1134C7.44505 27.8905 5.78212 27.0077 4.58399 25.6344C3.38586 24.261 2.73685 22.4937 2.76141 20.6713V19.1034C2.75962 17.978 2.93856 16.8596 3.29141 15.7909L6.7585 5.41172C7.01368 4.6409 7.50517 3.97004 8.1632 3.49436C8.82123 3.01867 9.61237 2.76233 10.4243 2.76172H42.5777C43.3896 2.76233 44.1808 3.01867 44.8388 3.49436C45.4968 3.97004 45.9883 4.6409 46.2435 5.41172L49.7106 15.7909C50.0634 16.8596 50.2424 17.978 50.2406 19.1034V20.6713C50.2664 22.487 49.6236 24.2487 48.4345 25.6211C47.2454 26.9934 45.5931 27.8805 43.7922 28.1134C42.7927 28.2233 41.7812 28.1186 40.8253 27.8064C39.8694 27.4941 38.9912 26.9814 38.2493 26.3026C38.0064 26.0817 37.7635 25.8167 37.5427 25.5738C36.8655 26.3798 36.0207 27.0285 35.0673 27.4747C34.1138 27.9209 33.0745 28.1539 32.0218 28.1576ZM10.4243 6.07422C10.3084 6.07597 10.1957 6.11278 10.1011 6.17979C10.0065 6.24679 9.93445 6.34087 9.89433 6.44964L6.44933 16.8288C6.21009 17.5409 6.08343 18.286 6.07391 19.0371V20.6051C6.04151 21.602 6.37693 22.576 7.01629 23.3416C7.65564 24.1072 8.55426 24.6109 9.541 24.7567C10.0735 24.8119 10.6117 24.7558 11.1214 24.592C11.6311 24.4282 12.1012 24.1603 12.5019 23.8053C12.9026 23.4502 13.2252 23.0158 13.4492 22.5295C13.6732 22.0433 13.7937 21.5158 13.8031 20.9805C13.8031 20.5412 13.9776 20.1199 14.2882 19.8093C14.5988 19.4987 15.0201 19.3242 15.4593 19.3242C15.8986 19.3242 16.3199 19.4987 16.6305 19.8093C16.9411 20.1199 17.1156 20.5412 17.1156 20.9805C17.0903 21.4947 17.173 22.0085 17.3582 22.4888C17.5435 22.9691 17.8273 23.4053 18.1913 23.7693C18.5553 24.1334 18.9915 24.4171 19.4719 24.6024C19.9522 24.7877 20.466 24.8703 20.9802 24.8451C22.0033 24.8393 22.9829 24.4302 23.7064 23.7067C24.4299 22.9832 24.8389 22.0036 24.8447 20.9805C24.8447 20.5412 25.0192 20.1199 25.3299 19.8093C25.6405 19.4987 26.0617 19.3242 26.501 19.3242C26.9403 19.3242 27.3615 19.4987 27.6721 19.8093C27.9827 20.1199 28.1572 20.5412 28.1572 20.9805C28.132 21.4947 28.2146 22.0085 28.3999 22.4888C28.5852 22.9691 28.8689 23.4053 29.233 23.7693C29.597 24.1334 30.0332 24.4171 30.5135 24.6024C30.9938 24.7877 31.5076 24.8703 32.0218 24.8451C33.045 24.8393 34.0246 24.4302 34.7481 23.7067C35.4716 22.9832 35.8806 22.0036 35.8864 20.9805C35.8864 20.5412 36.0609 20.1199 36.3715 19.8093C36.6821 19.4987 37.1034 19.3242 37.5427 19.3242C37.9819 19.3242 38.4032 19.4987 38.7138 19.8093C39.0244 20.1199 39.1989 20.5412 39.1989 20.9805C39.1991 21.5214 39.3129 22.0562 39.5328 22.5504C39.7528 23.0445 40.074 23.487 40.4758 23.8492C40.8775 24.2114 41.3508 24.4852 41.865 24.6529C42.3793 24.8207 42.923 24.8786 43.461 24.823C44.4477 24.6771 45.3464 24.1734 45.9857 23.4078C46.6251 22.6423 46.9605 21.6682 46.9281 20.6713V19.1034C46.9186 18.3522 46.7919 17.6072 46.5527 16.8951L43.1077 6.51589C43.0675 6.40712 42.9954 6.31304 42.9008 6.24604C42.8062 6.17903 42.6936 6.14222 42.5777 6.14047L10.4243 6.07422Z" fill="#B4B4B4"></path><path data-v-e3e2c0a4="" d="M44.1676 50.242H8.83431C7.81115 50.2362 6.83154 49.8272 6.10804 49.1037C5.38455 48.3802 4.97552 47.4006 4.96973 46.3774V25.3541C4.96973 24.9148 5.14422 24.4936 5.45483 24.183C5.76544 23.8724 6.18671 23.6979 6.62598 23.6979C7.06524 23.6979 7.48652 23.8724 7.79712 24.183C8.10773 24.4936 8.28223 24.9148 8.28223 25.3541V46.3774C8.28223 46.5239 8.34039 46.6643 8.44393 46.7678C8.54746 46.8714 8.68789 46.9295 8.83431 46.9295H44.1676C44.3141 46.9295 44.4545 46.8714 44.558 46.7678C44.6616 46.6643 44.7197 46.5239 44.7197 46.3774V25.332C44.7197 24.8928 44.8942 24.4715 45.2048 24.1609C45.5154 23.8503 45.9367 23.6758 46.376 23.6758C46.8152 23.6758 47.2365 23.8503 47.5471 24.1609C47.8577 24.4715 48.0322 24.8928 48.0322 25.332V46.3774C48.0264 47.4006 47.6174 48.3802 46.8939 49.1037C46.1704 49.8272 45.1908 50.2362 44.1676 50.242Z" fill="#B4B4B4"></path><path data-v-e3e2c0a4="" d="M34.2298 50.2383H18.7715C18.334 50.2326 17.916 50.0562 17.6067 49.7469C17.2973 49.4375 17.121 49.0195 17.1152 48.582V37.5404C17.121 36.5172 17.5301 35.5376 18.2536 34.8141C18.977 34.0906 19.9567 33.6816 20.9798 33.6758H32.0215C33.0446 33.6816 34.0243 34.0906 34.7478 34.8141C35.4713 35.5376 35.8803 36.5172 35.8861 37.5404V48.582C35.8803 49.0195 35.704 49.4375 35.3946 49.7469C35.0853 50.0562 34.6673 50.2326 34.2298 50.2383ZM20.4277 46.9258H32.5736V37.5404C32.5736 37.3939 32.5154 37.2535 32.4119 37.15C32.3083 37.0464 32.1679 36.9883 32.0215 36.9883H20.9798C20.8334 36.9883 20.693 37.0464 20.5894 37.15C20.4859 37.2535 20.4277 37.3939 20.4277 37.5404V46.9258Z" fill="#B4B4B4"></path></svg>