<svg xmlns:xlink="http://www.w3.org/1999/xlink" data-v-6268dc46="" width="53" height="53" viewBox="0 0 53 53" fill="none" xmlns="http://www.w3.org/2000/svg"><path data-v-6268dc46="" d="M6.625 26.5C6.625 18.2193 6.625 14.079 8.73376 11.1765C9.41481 10.2392 10.2392 9.41481 11.1765 8.73376C14.079 6.625 18.2193 6.625 26.5 6.625C34.7806 6.625 38.921 6.625 41.8234 8.73376C42.7608 9.41481 43.5852 10.2392 44.2663 11.1765C46.375 14.079 46.375 18.2193 46.375 26.5C46.375 34.7806 46.375 38.921 44.2663 41.8234C43.5852 42.7608 42.7608 43.5852 41.8234 44.2663C38.921 46.375 34.7806 46.375 26.5 46.375H6.625V26.5Z" stroke="#B4B4B4" stroke-width="3.3125px" stroke-linejoin="round" fill="none"></path><path data-v-6268dc46="" d="M17.6663 28.7057C18.886 28.7057 19.8747 27.717 19.8747 26.4974C19.8747 25.2778 18.886 24.2891 17.6663 24.2891C16.4467 24.2891 15.458 25.2778 15.458 26.4974C15.458 27.717 16.4467 28.7057 17.6663 28.7057Z" fill="#B4B4B4"></path><path data-v-6268dc46="" d="M26.5003 28.7057C27.72 28.7057 28.7087 27.717 28.7087 26.4974C28.7087 25.2778 27.72 24.2891 26.5003 24.2891C25.2807 24.2891 24.292 25.2778 24.292 26.4974C24.292 27.717 25.2807 28.7057 26.5003 28.7057Z" fill="#B4B4B4"></path><path data-v-6268dc46="" d="M35.3333 28.7057C36.553 28.7057 37.5417 27.717 37.5417 26.4974C37.5417 25.2778 36.553 24.2891 35.3333 24.2891C34.1137 24.2891 33.125 25.2778 33.125 26.4974C33.125 27.717 34.1137 28.7057 35.3333 28.7057Z" fill="#B4B4B4"></path></svg>