<svg width="12" height="13" viewBox="0 0 12 13" fill="none" xmlns="http://www.w3.org/2000/svg">
<path d="M10.6416 0.875126C10.7533 0.875126 10.845 0.911018 10.9168 0.982804C10.9886 1.05459 11.0244 1.14632 11.0244 1.25798V2.0237C11.0244 2.13536 10.9886 2.22709 10.9168 2.29888C10.845 2.37066 10.7533 2.40655 10.6416 2.40655H0.687301C0.575634 2.40655 0.483908 2.37066 0.412122 2.29888C0.340336 2.22709 0.304443 2.13536 0.304443 2.0237V1.25798C0.304443 1.14632 0.340336 1.05459 0.412122 0.982804C0.483908 0.911018 0.575634 0.875126 0.687301 0.875126H3.55873L3.77409 0.420483C3.88575 0.213101 4.06123 0.109411 4.30051 0.109411H7.02837C7.26766 0.109411 7.44313 0.213101 7.5548 0.420483L7.77016 0.875126H10.6416ZM1.57266 11.2841L1.07016 3.17227H10.2587L9.75623 11.2841C9.74028 11.5871 9.62063 11.8424 9.3973 12.0498C9.17397 12.2571 8.91075 12.3608 8.60766 12.3608H2.72123C2.41813 12.3608 2.15492 12.2571 1.93159 12.0498C1.70825 11.8424 1.58861 11.5871 1.57266 11.2841Z" fill="#212837"/>
</svg>
