<svg width="15" height="13" viewBox="0 0 15 13" fill="none" xmlns="http://www.w3.org/2000/svg">
<path d="M10.3849 2.09309L12.5396 4.24778C12.6513 4.3595 12.6513 4.47123 12.5396 4.58295L7.29652 9.82603L5.09395 10.0654C4.99819 10.0814 4.90641 10.0654 4.81863 10.0176C4.73085 9.96967 4.66301 9.90184 4.61513 9.81406C4.56725 9.72627 4.55129 9.6345 4.56725 9.53873L4.80666 7.33617L10.0497 2.09309C10.1615 1.98137 10.2732 1.98137 10.3849 2.09309ZM14.2633 1.54245C14.4389 1.73398 14.5267 1.95743 14.5267 2.2128C14.5267 2.46817 14.4389 2.69162 14.2633 2.88314L13.4015 3.72108C13.2897 3.8328 13.178 3.8328 13.0663 3.72108L10.9116 1.56639C10.7999 1.45467 10.7999 1.34294 10.9116 1.23122L11.7735 0.393283C11.949 0.201756 12.1645 0.105991 12.4199 0.105991C12.6753 0.105991 12.8987 0.201756 13.0902 0.393283L14.2633 1.54245ZM9.93003 8.38957C9.93003 8.30976 9.96195 8.24592 10.0258 8.19804L10.9834 7.2404C11.0632 7.14464 11.163 7.1207 11.2827 7.16858C11.4024 7.21646 11.4622 7.30424 11.4622 7.43193V11.2146C11.4622 11.5338 11.3505 11.8051 11.1271 12.0286C10.9036 12.252 10.6323 12.3638 10.3131 12.3638H1.88586C1.56665 12.3638 1.29532 12.252 1.07187 12.0286C0.848419 11.8051 0.736694 11.5338 0.736694 11.2146V2.78738C0.736694 2.46817 0.848419 2.19684 1.07187 1.97339C1.29532 1.74994 1.56665 1.63821 1.88586 1.63821H8.73298C8.86066 1.63821 8.94845 1.69807 8.99633 1.81777C9.04421 1.93748 9.02027 2.03723 8.92451 2.11703L7.96687 3.07467C7.91899 3.13851 7.85514 3.17044 7.77534 3.17044H2.26892V10.8315H9.93003V8.38957Z" fill="#212837"/>
</svg>
