<svg xmlns:xlink="http://www.w3.org/1999/xlink" xmlns="http://www.w3.org/2000/svg" width="96" height="96" viewBox="0 0 96 96" fill="none">
<rect width="96" height="96" rx="16" fill="#F6F6F6"/>
<path fill-rule="evenodd" clip-rule="evenodd" d="M45.7168 24.7422C42.3902 24.7422 39.6935 27.4389 39.6935 30.7655C39.6935 31.2476 39.361 31.8908 38.5665 32.3223C38.3219 32.4551 38.0808 32.5932 37.8432 32.7364C37.0507 33.2142 36.3068 33.1835 35.87 32.9336C32.9691 31.2738 29.2725 32.2643 27.5901 35.1521L25.9203 38.0183C24.2347 40.9117 25.2295 44.6243 28.1359 46.2873C28.5573 46.5285 28.9535 47.1417 28.9342 48.0542C28.9315 48.1846 28.9301 48.3153 28.9301 48.4462C28.9301 48.5772 28.9315 48.7079 28.9342 48.8383C28.9535 49.7508 28.5574 50.364 28.136 50.6051C25.2295 52.2681 24.2348 55.9807 25.9204 58.8741L27.5902 61.7404C29.2726 64.6282 32.9692 65.6187 35.8701 63.9589C36.3069 63.709 37.0508 63.6783 37.8432 64.156C38.0808 64.2993 38.3219 64.4373 38.5665 64.5701C39.361 65.0017 39.6935 65.6449 39.6935 66.127C39.6935 69.4535 42.3902 72.1503 45.7168 72.1503H49.1744C52.501 72.1503 55.1977 69.4535 55.1977 66.127C55.1977 65.6449 55.5301 65.0017 56.3247 64.5701C56.5692 64.4374 56.8103 64.2993 57.0479 64.156C57.8404 63.6783 58.5843 63.709 59.0211 63.9589C61.922 65.6187 65.6186 64.6282 67.301 61.7404L68.9708 58.8741C70.6564 55.9808 69.6616 52.2681 66.7552 50.6052C66.3338 50.3641 65.9376 49.7509 65.9569 48.8383C65.9597 48.7079 65.9611 48.5772 65.9611 48.4462C65.9611 48.3153 65.9597 48.1846 65.9569 48.0542C65.9376 47.1417 66.3338 46.5284 66.7552 46.2873C69.6617 44.6243 70.6565 40.9117 68.9709 38.0183L67.3011 35.1521C65.6187 32.2642 61.9221 31.2738 59.0211 32.9336C58.5844 33.1835 57.8404 33.2142 57.048 32.7364C56.8104 32.5932 56.5692 32.4551 56.3247 32.3223C55.5301 31.8908 55.1977 31.2476 55.1977 30.7655C55.1977 27.4389 52.501 24.7422 49.1744 24.7422H45.7168ZM47.4454 41.335C43.518 41.335 40.3342 44.5188 40.3342 48.4462C40.3342 52.3736 43.518 55.5574 47.4454 55.5574C51.3728 55.5574 54.5566 52.3736 54.5566 48.4462C54.5566 44.5188 51.3728 41.335 47.4454 41.335Z" fill="black"/>
</svg>