<svg xmlns:xlink="http://www.w3.org/1999/xlink" xmlns="http://www.w3.org/2000/svg" width="51" height="51" viewBox="0 0 51 51" fill="none">
<rect x="0.261719" y="0.354004" width="50.2575" height="50.5334" rx="8.27647" fill="#F6F6F6"/>
<g clip-path="url(#clip0_2511_2631)">
<path d="M32.9101 13.6894C32.6613 13.2569 32.1981 12.9883 31.7016 12.9883H26.5117V19.1609H36.0573L32.9101 13.6894Z" fill="black"/>
<path d="M25.0566 12.9883H19.8178C19.3202 12.9883 18.8571 13.2574 18.6083 13.6909L15.4727 19.1609H25.0566V12.9883H25.0566Z" fill="black"/>
<path d="M14.9199 20.625V36.2259C14.9199 37.1743 15.6876 37.9457 16.6308 37.9457H34.8239C35.7672 37.9457 36.5348 37.1743 36.5348 36.2259V20.625H14.9199ZM29.0293 27.1857L25.2671 30.9686C25.1251 31.1114 24.9388 31.1831 24.7526 31.1831C24.5664 31.1831 24.3802 31.1114 24.2386 30.9686L22.4749 29.1956C22.1912 28.9104 22.1912 28.4471 22.4749 28.1614C22.759 27.8757 20.886 28.231 21.1702 28.5167L24.8348 33.5174L29.8082 26.9376C30.0923 26.6518 28.7457 25.8658 29.0294 26.1515C29.3136 26.4372 29.3136 26.9 29.0293 27.1857Z" fill="black"/>
</g>
<defs>
<clipPath id="clip0_2511_2631">
<rect width="24.8199" height="24.9561" fill="white" transform="translate(13.3496 12.9883)"/>
</clipPath>
</defs>
</svg>