<svg xmlns:xlink="http://www.w3.org/1999/xlink" xmlns="http://www.w3.org/2000/svg" width="51" height="52" viewBox="0 0 51 52" fill="none">
<rect x="0.148438" y="0.845703" width="50.2575" height="50.5334" rx="8.27647" fill="#F6F6F6"/>
<path fill-rule="evenodd" clip-rule="evenodd" d="M25.7082 38.6116C25.2803 38.9133 24.7096 38.9128 24.2817 38.6111L24.2786 38.6089L24.2717 38.604L24.2485 38.5874C24.2291 38.5734 24.2015 38.5535 24.1665 38.5279C24.0965 38.4766 23.9965 38.4023 23.8707 38.3062C23.6193 38.1141 23.2642 37.8344 22.84 37.4772C21.9934 36.7641 20.8621 35.7341 19.7271 34.4669C17.5006 31.981 15.0625 28.3644 15.0625 24.3109C15.0625 21.5615 16.0945 18.9128 17.9498 16.9504C19.8071 14.9859 22.3401 13.8696 24.9953 13.8696C27.6505 13.8696 30.1834 14.9859 32.0407 16.9504C33.896 18.9128 34.928 21.5615 34.928 24.3109C34.928 28.3644 32.4899 31.981 30.2635 34.4669C29.1284 35.7341 27.9971 36.7641 27.1505 37.4772C26.7263 37.8344 26.3713 38.1141 26.1198 38.3062C25.994 38.4023 25.894 38.4766 25.824 38.5279C25.789 38.5535 25.7615 38.5734 25.742 38.5874L25.7189 38.604L25.7119 38.6089L25.7097 38.6105L25.7082 38.6116ZM21.2705 23.8569C21.2705 21.7885 22.9381 20.1117 24.9953 20.1117C27.0524 20.1117 28.7201 21.7885 28.7201 23.8569C28.7201 25.9254 27.0524 27.6022 24.9953 27.6022C22.9381 27.6022 21.2705 25.9254 21.2705 23.8569Z" fill="black"/>
</svg>