<svg xmlns:xlink="http://www.w3.org/1999/xlink" xmlns="http://www.w3.org/2000/svg" width="12" height="12" viewBox="0 0 12 12" fill="none">
<g clip-path="url(#clip0_14854_6357)">
<path d="M5.99807 12C9.31071 12 11.9961 9.31373 11.9961 6.00001C11.9961 2.6863 9.31071 0 5.99807 0C2.68543 0 0 2.6863 0 6.00001C0 9.31373 2.68543 12 5.99807 12Z" fill="#29B745"/>
<path d="M5.99641 0C5.9937 0 5.991 9.37385e-05 5.98828 9.37385e-05V11.9999C5.991 11.9999 5.9937 12 5.99641 12C9.30906 12 11.9945 9.31371 11.9945 5.99999C11.9945 2.68626 9.30906 0 5.99641 0Z" fill="#29B745"/>
<path d="M2.60671 6.11933L5.03275 8.54538C5.13856 8.65119 5.31012 8.65119 5.41593 8.54538L9.39881 4.56249C9.50461 4.45668 9.50461 4.28512 9.39881 4.17931L8.67386 3.45436C8.56805 3.34855 8.39649 3.34855 8.29068 3.45436L5.39376 6.35124C5.28795 6.45704 5.11639 6.45704 5.01058 6.35124L3.71237 5.05302C3.60865 4.9493 3.44121 4.94696 3.33463 5.04773L2.61214 5.73083C2.50125 5.8357 2.49879 6.01141 2.60671 6.11933Z" fill="white"/>
<path d="M8.67242 3.45436C8.56661 3.34855 8.39505 3.34855 8.28924 3.45436L5.98828 5.75532V7.9716L9.39737 4.5625C9.50317 4.4567 9.50317 4.28513 9.39737 4.1793L8.67242 3.45436Z" fill="white"/>
</g>
<defs>
<clipPath id="clip0_14854_6357">
<rect width="12" height="12" fill="white"/>
</clipPath>
</defs>
</svg>