<svg xmlns:xlink="http://www.w3.org/1999/xlink" xmlns="http://www.w3.org/2000/svg" width="51" height="52" viewBox="0 0 51 52" fill="none">
<rect x="0.261719" y="0.844238" width="50.2575" height="50.5334" rx="8.27647" fill="#F6F6F6"/>
<path fill-rule="evenodd" clip-rule="evenodd" d="M21.9072 28.8496C18.4786 28.8496 15.6992 31.6443 15.6992 35.0917C15.6992 37.1601 17.3669 38.8369 19.424 38.8369H31.84C33.8971 38.8369 35.5648 37.1601 35.5648 35.0917C35.5648 31.6443 32.7853 28.8496 29.3568 28.8496H21.9072Z" fill="black"/>
<path fill-rule="evenodd" clip-rule="evenodd" d="M25.6318 13.8682C22.2032 13.8682 19.4238 16.6628 19.4238 20.1102C19.4238 23.5576 22.2032 26.3523 25.6318 26.3523C29.0604 26.3523 31.8398 23.5576 31.8398 20.1102C31.8398 16.6628 29.0604 13.8682 25.6318 13.8682Z" fill="black"/>
</svg>